<?xml version="1.0" encoding="UTF-8" standalone="no"?>
<!-- Created with Inkscape (http://www.inkscape.org/) -->

<svg
   version="1.1"
   id="svg2"
   width="682.66669"
   height="682.66669"
   viewBox="0 0 682.66669 682.66669"
   sodipodi:docname="Icon_mag.eps"
   xmlns:inkscape="http://www.inkscape.org/namespaces/inkscape"
   xmlns:sodipodi="http://sodipodi.sourceforge.net/DTD/sodipodi-0.dtd"
   xmlns="http://www.w3.org/2000/svg"
   xmlns:svg="http://www.w3.org/2000/svg">
  <defs
     id="defs6" />
  <sodipodi:namedview
     id="namedview4"
     pagecolor="#ffffff"
     bordercolor="#000000"
     borderopacity="0.25"
     inkscape:showpageshadow="2"
     inkscape:pageopacity="0.0"
     inkscape:pagecheckerboard="0"
     inkscape:deskcolor="#d1d1d1" />
  <g
     id="g8"
     inkscape:groupmode="layer"
     inkscape:label="ink_ext_XXXXXX"
     transform="matrix(1.3333333,0,0,-1.3333333,0,682.66667)">
    <g
       id="g10"
       transform="scale(0.1)">
      <path
         d="m 4775.98,2799.05 c -4.46,-77.04 -20.04,-152.8 -34.79,-228.58 -5.36,-23.19 -11.58,-46.22 -17.55,-69.3 1.41,32.22 2.02,64.47 0.88,96.75 -4.54,143.56 -31.57,285.55 -77.05,420.46 -91.82,270 -250.89,512.04 -446.43,714.19 -97.88,101.22 -203.77,194.56 -316.98,277.83 -112.99,84.13 -231.67,157.91 -347.11,236.46 -232.46,155.01 -463.86,312.27 -706.2,454.21 -110.17,64.09 -222.25,125.89 -339.33,179.03 129.32,-28.61 258.44,-58.49 387.35,-89.25 153.79,-36.55 307.98,-72.51 457.79,-119.1 150.62,-45.5 294.76,-110.01 433.79,-182.2 278.2,-144.25 527.3,-347.34 710.2,-598.82 91.29,-125.54 165.42,-263.16 216.65,-408.66 52.27,-145.4 75.05,-299.35 85.61,-452.35 -0.53,-77 4.01,-154.02 -6.83,-230.67 z M 3488.06,628.5 C 3256.3,418.602 2995.72,233.852 2702.22,128.07 2555.24,77.6914 2400.29,50.6719 2246.1,56.4609 c -153.74,5.961 -307.12,43.2383 -443.69,114.7891 -137.48,68.98 -262.21,162.68 -370.27,273.371 -33.87,35.508 -65.89,72.699 -97.1,110.578 78.56,-60.219 165.16,-109.937 257.72,-144.707 133.73,-50.633 276.8,-72.293 418.31,-71.453 284.59,-0.949 560.6,79.262 821.61,181.711 261.42,104.75 511.12,235.262 750.56,383.75 174,108.73 340.69,231.27 493.34,370.47 C 3897.51,1045.07 3702.14,826.141 3488.06,628.5 Z M 532.859,2577.93 c -60.761,308.4 -105.644,620.02 -140.222,932.66 -17.082,155.85 -31.594,314.08 -39.992,468.5 -3.778,153.52 5.695,308.86 47.511,453.97 40.684,145.07 115.821,278.73 226.024,379.14 111.027,99.31 249.179,166.73 398.47,198.4 237.09,49.17 485.71,37 731.9,5.15 -49.23,-9.23 -98.03,-21.27 -145.07,-39.7 -139.44,-55.03 -256.32,-158.67 -341.4,-277.65 -40.19,-55.66 -73.62,-114.69 -102.96,-175.39 -32.47,-5.36 -64.87,-12.58 -97.06,-22.79 -30.2,-10.33 -60.06,-24.15 -87.169,-43.8 -27.383,-20.08 -50.168,-46.53 -66.7,-74.79 -33.046,-57.05 -48.75,-119.3 -58.125,-180.54 -18.847,-123.34 -10.851,-245.69 -6.211,-366.07 6.192,-122.38 15.868,-244.39 28.047,-366.14 -24.445,-131.81 -46.125,-264.16 -65.214,-396.93 -37.168,-278.61 -66.172,-559.37 -65.266,-841.81 -0.684,-216.28 12.598,-433.94 49.355,-648.3 -9.824,28.49 -20.632,56.63 -29.941,85.3 -98.125,297.5 -174.395,602.68 -235.977,910.79 z M 2665.51,4523.25 c -135.92,-21.78 -265.87,-65.99 -390.59,-122.18 -157.1,33.35 -314.86,64.33 -473.97,89.41 -119.85,18.28 -240.35,34.95 -362.32,41.95 -50,2.43 -100.59,3.17 -151.28,1.45 19.63,36.75 40.52,72.66 64.38,106.36 75.67,108.52 176.34,197.28 296.45,248.68 120.49,50.19 254.32,66.28 387.49,49.44 267.42,-35.06 523.1,-157 766.17,-288.47 83.86,-46.08 166.7,-94.28 249.16,-143.25 -125.7,33.13 -258.65,38.65 -385.49,16.61 z m 989.92,-704.98 c 48.62,-135.85 85.09,-276.03 112.84,-418.25 -55.13,55.07 -112.71,107.56 -174.41,154.55 -83.12,65.35 -172.31,119.57 -258.11,174.46 -86.35,55.52 -173.9,109.41 -261.45,163.36 -175.28,107.59 -352.05,213.64 -534.58,310.11 -76.77,40.13 -154.76,78.36 -234.56,113.09 62.8,-15.57 125.54,-31.44 188.24,-47.55 l 350.02,-90.51 c 117.4,-30.4 233.84,-56.76 344.98,-95.66 154.4,-52.38 304.91,-118.84 442.9,-204.33 8.27,-19.66 16.49,-39.33 24.13,-59.27 z m 358.92,-731.98 c -35.4,60.61 -76.39,117.27 -119.67,172.07 -32.93,184.94 -80.12,368.19 -151.13,543.47 21.84,-16.24 43.35,-32.94 64.27,-50.4 181,-146.93 328.96,-341.78 386.48,-569.45 29.07,-113.01 40.45,-231.84 30.21,-349.91 -10.52,-116.09 -35.04,-231.31 -71.66,-343.03 23.14,207.55 -36.14,418.55 -138.5,597.25 z M 2629.74,1014.36 c 98.16,42.1 193.59,89.62 286.76,140.26 l 102.66,55.79 h -4.17 c 146.28,84.16 288.56,175.33 423.57,276.6 106.52,80.76 209.36,167.04 305.05,260.94 -120.02,-157.38 -252,-305.55 -389.52,-447.75 l -0.65,-0.69 c -130.96,-134.02 -270.58,-259.55 -419.74,-369.85 -102.2,20.762 -203.93,50.93 -303.96,84.7 z M 2029.28,867.762 c 108.26,-0.11 213.4,18.308 314.94,44.777 69.22,19.242 136.37,43.172 202.68,68.91 4.55,-1.82 9.02,-3.808 13.59,-5.617 96.37,-37.832 194.24,-73.113 295.11,-101.113 -15.4,-10.559 -30.23,-22.047 -45.85,-32.25 C 2710.33,780 2605.7,726.191 2496.43,691.879 2387.8,657.16 2273.02,644.141 2166.67,668.172 c -105.66,23.699 -202.37,87.797 -285.51,164.867 -24.01,22.441 -46.77,46.41 -68.87,71.09 70.74,-24.738 144.94,-36.668 216.99,-36.367 z M 1308.13,3067.97 c 10.08,-101.24 23.4,-202.13 38.59,-302.78 -25.59,-214.8 -39.51,-431.29 -37.53,-648.9 1.97,-93.03 6.33,-186.47 14.57,-279.77 -142.09,418.45 -239.92,853.07 -316.4,1290.66 -1.03,6.08 -1.93,12.21 -2.97,18.3 32.13,64.83 68.36,127.87 108.71,188.4 60.96,93.09 129.49,181.38 203.06,265.91 -23.38,-86.94 -29.55,-175.17 -28.29,-262.23 4.08,-92.05 11.38,-179.94 20.26,-269.59 z m 833.91,1267.94 c -34.51,-18.16 -68.77,-36.76 -102.46,-56.07 -127.39,-74.59 -249.06,-158.06 -366.58,-247.34 18.63,62.75 40.18,124.09 69.06,181.29 22.31,44 49.64,85.73 84.76,116.78 34.6,31.68 79.59,44.14 128.5,44.11 62.76,-2.39 125.31,-17.96 186.72,-38.77 z m 587.38,-359.62 c -73.17,-10.71 -141.96,-33.03 -207.51,-60.42 -81.16,17.96 -162.66,35.04 -245.07,49.49 -176.21,31.4 -359.46,57.75 -546.68,22.33 -7.32,-1.43 -14.51,-3.97 -21.81,-5.68 112.16,94.56 229.2,183.7 351.96,263.87 40.8,26.2 82.65,51.08 125.21,74.74 19.43,-7.44 38.81,-15.07 57.89,-23.19 92.77,-41.06 183.6,-87.7 271.46,-139.79 95.97,-56.3 190.2,-115.72 283.66,-176.5 -23.39,-0.22 -46.58,-1.63 -69.11,-4.85 z M 3963.25,2518.95 c -5.17,180.82 -15.12,362.03 -37.95,542.11 4.18,-6.68 9.27,-12.75 13.32,-19.51 104.01,-167.72 168.38,-364.18 151.58,-562.09 -7.93,-98.42 -31.61,-196.74 -72.51,-288.58 -18.4,-40.81 -39.41,-80.53 -62.12,-119.33 7.11,148.93 9.75,298.12 7.68,447.4 z m -602.53,-992.68 c 18.49,50.64 28.65,102.79 37.36,154.84 41.38,45.82 81.93,92.39 120.74,140.52 111.98,139.53 213.88,289.38 288.54,454.96 15.3,32.79 28.99,66.47 41.69,100.6 -0.74,-159.69 -5.57,-319.4 -15.54,-478.93 -143.06,-175.45 -318.07,-320.11 -508,-444.25 14.23,23.16 26.19,47.38 35.21,72.26 z m -1777.1,-280.73 c -37.5,71.83 -64.87,150.03 -86.5,230.28 47.65,-29.91 96.51,-57.85 146.41,-83.7 99.88,-52.43 202.79,-95.7 303.53,-143.66 162.65,-75.3 324.98,-151.82 490.73,-221.93 -37.87,-11.43 -75.79,-22.69 -114.04,-32.038 -97.12,-21.91 -195.82,-35.383 -292.37,-32.004 -96.21,2.883 -190.69,24.582 -267.8,73.012 -76.54,47.84 -135.41,125.5 -179.96,210.04 z m 523.68,2413.7 -96.47,-75.09 5.96,1.12 c -89.35,-72.99 -176.01,-149.22 -255.97,-232.29 -106.19,-111.76 -206.78,-230.14 -285.53,-364.61 -0.13,-0.21 -0.23,-0.44 -0.35,-0.65 14.25,114.21 30.39,228.27 48.24,342.04 28.42,176.51 62.43,352.41 103.93,526.32 37.95,19.25 78.74,33.81 121.82,42.68 163.49,33.07 340.63,11.66 512.74,-17.93 44.49,-8.37 88.92,-17.51 133.32,-27.15 -102.16,-56.73 -196.92,-123.8 -287.69,-194.44 z m 671.09,101.96 c 86.17,-22.2 173.09,-42.74 254.44,-68.76 33.59,-10.44 66.28,-23.26 98.8,-36.41 22.66,-38.85 42.79,-79.81 60.1,-121.27 56.44,-134.26 91.79,-279.55 118.41,-425.88 1.14,-6.49 1.73,-13.11 2.85,-19.61 -23.95,25.01 -49.51,48.05 -76.04,68.45 -94.08,74.11 -202.16,124.02 -313.08,156.79 -27.88,8.6 -55.51,15.1 -83.15,21.51 -27.49,6.76 -53.87,15.65 -81.8,21.54 l -166.17,34.74 c -110.32,23.44 -221.34,44.55 -333.2,61.18 -55.85,8.75 -112.17,15.57 -168.98,18.35 -50.97,2 -103.07,1.07 -153.92,-12.19 66.6,53.61 135.55,104.23 205.47,151.81 l 2.16,1.47 c 120.12,83.34 246.8,156.92 378.67,211.64 85.17,-20.19 170.27,-41.72 255.44,-63.36 z m 245.96,32.85 c -75.37,21.35 -149.79,38.87 -223.72,56.99 -34.85,8.39 -69.96,16.33 -104.89,24.63 85.08,14.8 169.23,12.32 241.85,-21.27 31.6,-15.29 60.32,-36.04 86.76,-60.35 z M 3409.8,1752.24 c 22.85,151.33 37.2,303.54 47.87,456.26 20.05,305.38 14.02,613.79 -36.24,919.86 -27.65,152.32 -63.81,304.98 -128.31,450.1 -0.39,0.86 -0.82,1.7 -1.21,2.56 294.66,-158.12 520.83,-442.47 547.02,-775.94 11.2,-169.37 -23.57,-342.42 -90.44,-503.16 -64.76,-162.01 -157.92,-312.97 -262.3,-455.04 -25.01,-33.13 -50.73,-65.81 -76.95,-98.12 0.19,1.15 0.37,2.32 0.56,3.48 z M 1973.95,1352.68 c -59.32,63.73 -110.1,134.93 -155.14,209.55 -74.69,128.8 -132.24,265.73 -179.69,406.69 74.87,-67.12 157.44,-125.15 245.22,-172.05 69.6,-38.63 142.19,-67.84 211.99,-97.43 70.34,-30.32 141.68,-58.64 212.94,-87.2 142.63,-56.82 286.16,-112.46 432.63,-160.34 73.4,-23.38 147.01,-46.68 222.54,-63.64 24.99,-5.57 50.33,-10.51 75.83,-14.81 -106.63,-84.84 -222.72,-157.92 -350.73,-204.03 -165.43,-57.74 -354.18,-56.41 -508.84,26.81 -77.18,39.89 -146.75,93.5 -206.75,156.45 z m -157.27,1795 c 3.39,-112.86 12.94,-225.25 24.16,-337.71 25.49,-224.22 62.6,-449.42 137.58,-666.75 40.94,-107.28 87.93,-213.44 153.27,-312.03 18.59,-27.84 39.21,-54.76 61.38,-80.8 -89.67,42.87 -179.56,85.26 -262.99,129.86 -129.16,72.38 -249.31,161.49 -344.43,272.58 -1.41,1.61 -2.68,3.34 -4.08,4.97 -35.69,131.59 -64.74,265.36 -91.06,398.71 -14.72,72.85 -27.3,146.2 -39.26,219.66 2.9,29.24 5.75,58.5 8.97,87.74 14.25,36.1 30.71,71.46 48.98,105.65 82.36,154.83 197.72,287.51 327.97,405.08 -7.17,-18.46 -12.64,-37.35 -15.68,-56.38 -9.3,-57.29 -5.38,-114.32 -4.81,-170.58 z m 1501.18,-616.99 c -69.49,-202.14 -205.66,-382.95 -354.75,-545.48 l -0.25,-0.28 c -75.94,-79.28 -157.63,-152.88 -246.57,-211.71 -88.22,-56.7 -191.09,-99.38 -280.58,-78.81 -87.99,21.34 -162.68,104.35 -218.88,192.32 -57.37,89.56 -100.3,190.65 -137.63,293.24 -76.81,205.18 -136.95,420.15 -180.7,638.9 -22.57,109.26 -40.32,219.76 -51.81,330.75 -6.06,55.48 -9.14,111.27 -2.37,165.29 6.15,53.73 27.27,108.01 81.49,123.13 105.48,28.58 220.5,8.45 329.82,-8.36 110.17,-20.6 218.95,-48.73 327.54,-77.56 214.72,-59.67 440.38,-115.68 597.65,-261 78.08,-71.68 133.09,-161.36 157.71,-256.95 25.65,-96.81 12.14,-203.05 -20.67,-303.48 z M 1483.97,1527.15 c -44.74,191.28 -61.57,391.08 -65.54,590.6 -0.35,43.91 0.12,87.85 0.88,131.79 20.94,-42.48 45.91,-82.82 73.37,-120.96 12.28,-37.55 24.95,-74.99 38.66,-112.1 61.42,-169.22 137.44,-334.65 238.09,-485.53 71.7,-104.28 157,-203.25 259.29,-279.16 -22.38,9.65 -44.82,19.17 -67.19,28.9 -102.48,44.25 -205,88.88 -302.92,139.95 -60.88,31.07 -118.68,67.52 -174.64,106.51 z m 1649.2,-75.24 c -21.28,-19.06 -43.09,-37.61 -65.17,-55.87 -32.49,4.85 -64.93,11.67 -96.78,19.83 -73.03,20.16 -145.33,44.16 -215.69,73.48 -81.36,33.2 -161.6,69.31 -241.41,106.46 31.81,3.12 62.67,10.31 91.43,20.17 58.61,19.83 111.44,48.83 160.67,81.23 97.22,66.42 181.69,145.49 259.5,229.09 l 120.06,129 -6.04,-2.16 c 92.16,109.06 175.32,227.32 236.5,360.12 2.43,-67.52 4.33,-135.11 5.49,-202.7 1.94,-151.16 -1.41,-302.77 -13.04,-453.56 -1.65,-21.18 -3.61,-42.3 -5.89,-63.34 -71.97,-84.82 -147.95,-166.36 -229.63,-241.75 z m 59.93,-60.07 c -30.54,-3.55 -61.64,-2.55 -92.79,0.43 16.52,13.68 32.83,27.55 48.9,41.63 71.74,63.17 140.03,130 205.46,199.59 -5.36,-33.2 -12.17,-65.96 -21.97,-97.72 -10.85,-35.18 -26.65,-68.97 -49.05,-96.15 -22.09,-27.58 -54.43,-42.18 -90.55,-47.78 z m -1780.83,2197.9 c 22.25,78.76 62.13,150.48 121.57,203.83 6.77,5.96 14.34,10.91 21.46,16.43 -42.44,-153.88 -79.15,-309.19 -112.51,-465.33 -14.34,-68.35 -27.39,-137.02 -39.79,-205.85 -16.2,155.57 -31.6,310.09 9.27,450.92 z m 1476.94,-2382.66 -0.72,-0.35 c -119.73,-58.94 -242.79,-110.7 -367.97,-153.39 -51.15,18.81 -102.14,38.17 -152.95,58.17 20.87,-2.57 41.84,-4.34 62.88,-4.77 90.59,-2.15 180.67,14.98 265.14,45.26 137.91,48.05 261.91,126.36 375.32,216.7 37.23,-4.78 75.02,-6.15 113.29,-2.42 -96.71,-56.75 -195.61,-109.65 -294.99,-159.2 z M 897.41,2857.87 c 11.633,46.27 25.645,91.92 42.102,136.83 65.378,-432.42 161.878,-861.49 309.698,-1276.28 -115.36,113.31 -212.1,244.73 -280.276,389.31 -46.407,98.33 -79.532,202.46 -95.899,308.89 -3.867,24.1 -6.328,48.32 -8.164,72.58 7.727,123.05 18.379,245.99 32.539,368.67 z M 3514.3,988.781 c -87.06,-53.922 -188.77,-83.332 -294.88,-87 -60.27,-1.812 -120.86,2.391 -181.45,10.309 128.49,107.4 247.33,224.93 359.22,347.6 l 82.04,89.95 -4.23,-1.56 c 125.48,143.69 244.08,293.37 352.05,450.64 -6.86,-92.41 -14.97,-185.36 -26.01,-275.12 -16.22,-105.93 -41.83,-211.41 -87.94,-305.07 -45.36,-93.92 -112.27,-174.87 -198.8,-229.749 z m -4.04,3122.429 c 17.8,-27.82 34.22,-56.46 50,-85.46 -109.18,59.55 -224.02,108.36 -341.74,146.54 -117.11,39.64 -236.7,65.48 -352.94,94.44 -117.04,29.13 -234.82,55.68 -352.63,82.38 -62.67,14.1 -125.43,27.96 -188.29,41.53 110.28,49.83 225.32,88.17 344.72,107.8 109,16.35 220.83,15.92 327.81,-8.36 106.46,-24.83 208.45,-71.1 293.53,-139.45 86.11,-66.54 159.77,-148.28 219.54,-239.42 z M 1078.05,3874.88 c 31.04,134.86 65.01,271.2 102.82,402.1 22.25,69.28 48.32,137.59 79.17,203.04 57.96,2.96 116.96,1.06 175.24,-2.59 118.69,-8.69 237.63,-24.23 355.38,-47.16 35.95,-6.82 71.77,-14.45 107.62,-21.82 -35.83,-7.01 -71.14,-21.21 -98.67,-45.83 -42.38,-36.19 -72.55,-81.57 -97.36,-128 -43.69,-81.56 -70.45,-168.44 -97.13,-254.24 -38.33,-30.37 -76.38,-61.11 -113.74,-92.77 -170.8,-146.81 -331.21,-310.19 -457.47,-501.19 -19.17,-27.87 -37.222,-56.6 -54.664,-85.77 -2.734,17.81 -5.086,35.66 -7.723,53.48 31.267,174.37 66.967,348.01 106.527,520.75 z m -163.558,-35.79 c -9.57,119.14 -16.582,238.66 -0.969,353.86 7.813,57.31 22.082,113.95 48.907,161.55 26.027,48.04 70.43,78.65 124.43,97.39 17.51,5.37 35.76,8.55 53.82,12.28 -22.06,-51.21 -42.22,-103.11 -59.74,-155.65 -41.24,-137.05 -76.15,-271.56 -109.319,-408.56 -15.695,-64.5 -30.344,-129.22 -44.328,-194.11 -4.559,44.4 -9.129,88.78 -12.801,133.24 z M 1044.68,1016.06 c -55.883,124.85 -96.418,256.25 -126.125,390.26 -52.981,264.01 -71.301,535.04 -65.352,805.82 17.402,-45.34 36.953,-89.77 59.57,-132.48 92.407,-173.26 221.117,-323.39 369.437,-447.86 78.51,-203.39 167.6,-404.26 289.84,-589.01 68.22,-102.708 145.18,-201.36 238.5,-286.599 93.11,-84.019 204.19,-157.769 334.66,-185.812 129.19,-27.07 262.26,-10.219 380.53,31.371 119.23,41.27 228.3,101.898 330.4,170.129 35.04,24.25 68.33,50.441 101.87,76.351 85.68,-19.05 173.64,-31.742 263.81,-30.64 27.5,0.07 55.21,2.07 82.86,5.402 C 3145.82,728.711 2982.07,642.23 2813.13,568.121 2558.88,459.57 2287.36,381.391 2011.14,378.191 c -274.53,-0.5 -551.8,99.11 -738.82,300.668 -94.23,98.2 -170.4,213.133 -227.64,337.201 z m 3543.13,1180.02 c -40.83,-129.2 -96.37,-253.81 -168.16,-369.58 -72.74,-114.94 -155.02,-224.42 -248.1,-325.07 -114.31,-127.34 -243.57,-240.56 -379.31,-346.38 3.39,6.31 7.63,12.29 10.83,18.65 54.06,106.45 82.99,220.31 102.19,334.26 15.74,114 26.67,224.34 35.99,336.85 3.94,47.42 7.06,94.9 9.93,142.4 60.57,86.21 112.59,179.62 149.34,279.31 31.85,66.93 61.79,134.82 87.15,204.87 79.49,228.65 121.32,480.6 65.86,724.84 -51.95,245 -202.74,460.5 -389.61,621.7 -61.01,51.96 -125.82,98.9 -193.06,141.86 -33.65,63.79 -70.74,125.78 -112.68,184.66 -25.75,35.29 -54.26,68.52 -84.11,100.48 14.5,-9.24 29.06,-18.38 43.54,-27.64 117.75,-75.17 235.83,-150.23 347.11,-232.69 112.3,-81.8 213.39,-177.87 308.1,-278.62 189.59,-201.47 337.36,-443.59 415.63,-706.28 39.07,-131.11 60.41,-267.14 60.42,-402.95 0.94,-136.04 -25.3,-270.53 -61.06,-400.67 z m 281.97,838.22 c -13.69,161.45 -43.72,322.29 -102.45,473.54 -58.01,151.22 -139.42,292.5 -237.84,419.56 -197.79,253.97 -457.36,453.44 -741.35,596.43 -142.15,71.61 -289.88,132.09 -441.83,178.67 -151.99,47.59 -306.32,82.14 -459.05,122.66 -306.3,78.39 -612.38,159.24 -924.19,219.79 -155.91,29.76 -313.09,56.41 -472.93,67.73 -159.42,11.7 -322.09,12.19 -482.89,-19.67 C 846.629,5062.68 689.941,4991.85 562.762,4882.34 435.488,4772.1 350.137,4618.95 304.09,4460.95 c -47.137,-159.08 -58.164,-323.19 -55.672,-485.06 7.273,-161.33 20.391,-318.14 36.27,-476.69 31.406,-316.19 80.3,-630.45 141.453,-942.46 C 490.125,2245.39 564.5,1935.12 669.813,1633.77 773.133,1332.31 902.527,1037.24 1076.41,766.922 1165.15,632.949 1265.32,506.121 1379.59,392.02 1495.17,279.211 1628.72,183.629 1775.3,114.59 1921.15,44 2082.31,4.49219 2244.28,0.429688 2406.41,-4 2567.76,26.1289 2719.03,79.7422 3023.74,185.91 3288.85,374.922 3528.67,582.922 c 239.26,210.668 456.17,444.288 655.14,693.198 197.81,249.62 373.25,520.19 500.56,815.76 131.25,293.04 200.9,617.95 185.41,942.42"
         style="fill:#ff00e6;fill-opacity:1;fill-rule:nonzero;stroke:none"
         id="path12" />
    </g>
  </g>
</svg>
